<?xml version="1.0" encoding="UTF-8"?>
<svg version="1.1" xmlns="http://www.w3.org/2000/svg" width="3333" height="3333">
<path d="M0 0 C1.5166626 0.74080811 1.5166626 0.74080811 3.06396484 1.49658203 C15.89919083 7.78495218 28.51192523 14.41868784 41.01318359 21.34619141 C44.20971183 23.11611802 47.41138087 24.87653115 50.61328125 26.63671875 C79.70946604 42.66969128 108.27470071 59.68826921 136 78 C136.88300781 78.58185059 137.76601562 79.16370117 138.67578125 79.76318359 C167.16340433 98.56058171 194.93551977 118.21002338 222 139 C223.24199271 139.95077534 224.48415751 140.90132596 225.7265625 141.8515625 C228.82552137 144.22432482 231.91484497 146.60930419 235 149 C235.5357666 149.41491699 236.0715332 149.82983398 236.62353516 150.25732422 C250.49943929 161.02276367 264.02198902 172.22553645 277.38330078 183.62158203 C279.09611972 185.08195287 280.81179531 186.53893078 282.52734375 187.99609375 C288.9744976 193.48461504 295.32209923 199.05395293 301.5625 204.77734375 C303.64272725 206.67421764 305.74556898 208.53392943 307.875 210.375 C312.54286963 214.43443041 317.06798918 218.64770367 321.6015625 222.85546875 C323.73007306 224.83022005 325.8688204 226.79206154 328.0234375 228.73828125 C335.9786442 235.95215175 343.56963256 243.49998287 351.10961914 251.14648438 C351.92938232 251.97470703 352.74914551 252.80292969 353.59375 253.65625 C354.32271484 254.39681641 355.05167969 255.13738281 355.80273438 255.90039062 C358.00032877 258.06436015 358.00032877 258.06436015 360.58007812 260.04882812 C362.72967419 261.78203754 364.37658221 263.44334441 366.125 265.5625 C370.78118341 271.00479229 375.90405467 275.97578044 381 281 C386.6311063 286.5518481 392.21515612 292.09163192 397.359375 298.10546875 C400.30017596 301.50139367 403.41115453 304.73919819 406.5 308 C413.44086012 315.32725852 420.07273895 322.88800332 426.625 330.5625 C429.82366679 334.30708208 433.03043042 338.04320211 436.27734375 341.74609375 C442.03561181 348.32000233 447.63159545 354.96223212 452.97900391 361.87548828 C456.0276739 365.80500812 459.19081519 369.60815052 462.4375 373.375 C466.96668789 378.6524815 471.17324335 384.12261096 475.31054688 389.7109375 C479.10496517 394.83170176 483.00146187 399.86253605 486.9375 404.875 C493.8749219 413.74154967 500.48300998 422.82154607 507 432 C507.48645996 432.68352539 507.97291992 433.36705078 508.47412109 434.07128906 C511.44636678 438.25072686 514.40043205 442.44257923 517.34423828 446.64208984 C518.50147719 448.29007176 519.66153906 449.93607335 520.82373047 451.58056641 C530.68203502 465.53043043 540.08956398 479.71038598 549.20263672 494.15771484 C550.79200721 496.67108774 552.39389168 499.17560655 554.00390625 501.67578125 C578.89574711 540.45664131 600.99409987 581.01411347 622 622 C622.47646973 622.92425781 622.95293945 623.84851562 623.44384766 624.80078125 C631.9312088 641.29295475 639.5666546 658.16011821 647.14196777 675.0847168 C647.93674246 676.85879772 648.73436196 678.63160344 649.53222656 680.40429688 C687.91160406 765.75663743 716.58353371 855.55370213 680.11558533 1732.34254456 C662.89514129 1777.51565859 643.23010357 1821.57793148 622 1865 C621.25919189 1866.5166626 621.25919189 1866.5166626 620.50341797 1868.06396484 C614.21029422 1880.90889343 607.57006037 1893.52948898 600.63623047 1906.03955078 C598.91454886 1909.15460765 597.20865253 1912.27799001 595.50390625 1915.40234375 C587.06356959 1930.80914628 578.14005684 1945.84955928 568.94677734 1960.81445312 C566.63788386 1964.59253716 564.36792738 1968.39262386 562.10522461 1972.19848633 C556.30173358 1981.95711919 550.2586273 1991.52758797 544 2001 C543.11852295 2002.33756348 543.11852295 2002.33756348 542.21923828 2003.70214844 C523.42782501 2032.18100057 503.78349935 2059.94395191 483 2087 C482.04922466 2088.24199271 481.09867404 2089.48415751 480.1484375 2090.7265625 C477.77567518 2093.82552137 475.39069581 2096.91484497 473 2100 C472.58508301 2100.5357666 472.17016602 2101.0715332 471.74267578 2101.62353516 C460.97723633 2115.49943929 449.77446355 2129.02198902 438.37841797 2142.38330078 C436.91804713 2144.09611972 435.46106922 2145.81179531 434.00390625 2147.52734375 C428.51538496 2153.9744976 422.94604707 2160.32209923 417.22265625 2166.5625 C415.32578236 2168.64272725 413.46607057 2170.74556898 411.625 2172.875 C407.56556959 2177.54286963 403.35229633 2182.06798918 399.14453125 2186.6015625 C397.16977995 2188.73007306 395.20793846 2190.8688204 393.26171875 2193.0234375 C384.57293142 2202.60684123 375.39811844 2211.69725258 366.21313477 2220.80273438 C362.19842417 2224.78865775 358.20590562 2228.79652251 354.21720886 2232.80844116 C351.70405784 2235.33510504 349.18813575 2237.8590025 346.67211914 2240.3828125 C345.35350508 2241.7064551 344.03578997 2243.03099387 342.71899414 2244.35644531 C329.7412842 2257.41696061 329.7412842 2257.41696061 323.76489258 2262.48681641 C320.40082692 2265.37109901 317.2163627 2268.45325017 314 2271.5 C306.67274148 2278.44086012 299.11199668 2285.07273895 291.4375 2291.625 C287.69291792 2294.82366679 283.95679789 2298.03043042 280.25390625 2301.27734375 C273.67999767 2307.03561181 267.03776788 2312.63159545 260.12451172 2317.97900391 C256.19499188 2321.0276739 252.39184948 2324.19081519 248.625 2327.4375 C243.3475185 2331.96668789 237.87738904 2336.17324335 232.2890625 2340.31054688 C227.16829824 2344.10496517 222.13746395 2348.00146187 217.125 2351.9375 C208.25845033 2358.8749219 199.17845393 2365.48300998 190 2372 C189.31647461 2372.48645996 188.63294922 2372.97291992 187.92871094 2373.47412109 C183.74927314 2376.44636678 179.55742077 2379.40043205 175.35791016 2382.34423828 C173.70992824 2383.50147719 172.06392665 2384.66153906 170.41943359 2385.82373047 C156.46956957 2395.68203502 142.28961402 2405.08956398 127.84228516 2414.20263672 C125.32891226 2415.79200721 122.82439345 2417.39389168 120.32421875 2419.00390625 C81.54335869 2443.89574711 40.98588653 2465.99409987 0 2487 C-0.92425781 2487.47646973 -1.84851562 2487.95293945 -2.80078125 2488.44384766 C-19.29295475 2496.9312088 -36.16011821 2504.5666546 -53.0847168 2512.14196777 C-54.85879772 2512.93674246 -56.63160344 2513.73436196 -58.40429688 2514.53222656 C-143.75663743 2552.91160406 -233.55370213 2581.58353371 -1110.34254456 2545.11558533 C-1155.51565859 2527.89514129 -1199.57793148 2508.23010357 -1243 2487 C-1244.5166626 2486.25919189 -1244.5166626 2486.25919189 -1246.06396484 2485.50341797 C-1258.90889343 2479.21029422 -1271.52948898 2472.57006037 -1284.03955078 2465.63623047 C-1287.15460765 2463.91454886 -1290.27799001 2462.20865253 -1293.40234375 2460.50390625 C-1308.80914628 2452.06356959 -1323.84955928 2443.14005684 -1338.81445312 2433.94677734 C-1342.59253716 2431.63788386 -1346.39262386 2429.36792738 -1350.19848633 2427.10522461 C-1359.95711919 2421.30173358 -1369.52758797 2415.2586273 -1379 2409 C-1379.89170898 2408.41234863 -1380.78341797 2407.82469727 -1381.70214844 2407.21923828 C-1410.18100057 2388.42782501 -1437.94395191 2368.78349935 -1465 2348 C-1466.24199271 2347.04922466 -1467.48415751 2346.09867404 -1468.7265625 2345.1484375 C-1471.82552137 2342.77567518 -1474.91484497 2340.39069581 -1478 2338 C-1478.5357666 2337.58508301 -1479.0715332 2337.17016602 -1479.62353516 2336.74267578 C-1493.49943929 2325.97723633 -1507.02198902 2314.77446355 -1520.38330078 2303.37841797 C-1522.09611972 2301.91804713 -1523.81179531 2300.46106922 -1525.52734375 2299.00390625 C-1531.9744976 2293.51538496 -1538.32209923 2287.94604707 -1544.5625 2282.22265625 C-1546.64272725 2280.32578236 -1548.74556898 2278.46607057 -1550.875 2276.625 C-1555.54286963 2272.56556959 -1560.06798918 2268.35229633 -1564.6015625 2264.14453125 C-1566.73007306 2262.16977995 -1568.8688204 2260.20793846 -1571.0234375 2258.26171875 C-1578.9786442 2251.04784825 -1586.56963256 2243.50001713 -1594.10961914 2235.85351562 C-1595.33926392 2234.61118164 -1595.33926392 2234.61118164 -1596.59375 2233.34375 C-1597.32271484 2232.60318359 -1598.05167969 2231.86261719 -1598.80273438 2231.09960938 C-1601.00032877 2228.93563985 -1601.00032877 2228.93563985 -1603.58007812 2226.95117188 C-1605.72967419 2225.21796246 -1607.37658221 2223.55665559 -1609.125 2221.4375 C-1613.78118341 2215.99520771 -1618.90405467 2211.02421956 -1624 2206 C-1629.6311063 2200.4481519 -1635.21515612 2194.90836808 -1640.359375 2188.89453125 C-1643.30017596 2185.49860633 -1646.41115453 2182.26080181 -1649.5 2179 C-1656.44086012 2171.67274148 -1663.07273895 2164.11199668 -1669.625 2156.4375 C-1672.82366679 2152.69291792 -1676.03043042 2148.95679789 -1679.27734375 2145.25390625 C-1685.03561181 2138.67999767 -1690.63159545 2132.03776788 -1695.97900391 2125.12451172 C-1699.0276739 2121.19499188 -1702.19081519 2117.39184948 -1705.4375 2113.625 C-1709.96668789 2108.3475185 -1714.17324335 2102.87738904 -1718.31054688 2097.2890625 C-1722.10496517 2092.16829824 -1726.00146187 2087.13746395 -1729.9375 2082.125 C-1736.8749219 2073.25845033 -1743.48300998 2064.17845393 -1750 2055 C-1750.48645996 2054.31647461 -1750.97291992 2053.63294922 -1751.47412109 2052.92871094 C-1754.44636678 2048.74927314 -1757.40043205 2044.55742077 -1760.34423828 2040.35791016 C-1761.50147719 2038.70992824 -1762.66153906 2037.06392665 -1763.82373047 2035.41943359 C-1773.68203502 2021.46956957 -1783.08956398 2007.28961402 -1792.20263672 1992.84228516 C-1793.79200721 1990.32891226 -1795.39389168 1987.82439345 -1797.00390625 1985.32421875 C-1821.89574711 1946.54335869 -1843.99409987 1905.98588653 -1865 1865 C-1865.47646973 1864.07574219 -1865.95293945 1863.15148438 -1866.44384766 1862.19921875 C-1874.9312088 1845.70704525 -1882.5666546 1828.83988179 -1890.14196777 1811.9152832 C-1890.93674246 1810.14120228 -1891.73436196 1808.36839656 -1892.53222656 1806.59570312 C-1930.91160406 1721.24336257 -1959.58353371 1631.44629787 -1990.82421875 1005.03125 C-1989.46375905 997.79944509 -1989.60876066 990.45059828 -1989.52148438 983.11523438 C-1989.30771224 973.97517224 -1988.44840871 965.06003167 -1983.84765625 956.984375 C-1981.1320003 951.97920026 -1981.45276034 946.82394728 -1981.4375 941.25 C-1981.21480374 931.39475943 -1980.96795625 922.08731927 -1976 913.3125 C-1973.89444564 909.45099276 -1973.24826683 905.48215722 -1972.5625 901.1875 C-1970.37281674 887.69911077 -1967.70222066 875.22859516 -1960.74047852 863.35986328 C-1957.74504675 858.05876096 -1956.99801784 853.25836222 -1956.40625 847.2734375 C-1955.50111268 839.98011948 -1952.4300632 833.75347771 -1948.9375 827.375 C-1946.45979501 822.60971095 -1945.38983047 818.21345496 -1944.6875 812.9375 C-1943.76255651 806.05163711 -1941.63493604 800.64992743 -1938.4375 794.5 C-1934.46590561 786.81913064 -1933.01480868 780.35849315 -1932.37109375 771.8046875 C-1931.40378653 761.88724294 -1926.41653224 752.15710444 -1920.65014648 744.11816406 C-1916.16424451 737.80291256 -1913.49658721 731.2380049 -1910.8125 724 C-1909.86828324 721.50442886 -1908.92103807 719.01049081 -1907.96484375 716.51953125 C-1907.72413147 715.89158157 -1907.48341919 715.2636319 -1907.2354126 714.61665344 C-1905.15727017 709.26397593 -1902.78154485 704.07195625 -1900.35449219 698.8684082 C-1896.11789707 689.75972871 -1893.03999972 682.48008442 -1893.07421875 672.33984375 C-1892.73151902 656.91835569 -1883.84036899 642.3998593 -1873 632 C-1872.19393311 631.41468506 -1871.38786621 630.82937012 -1870.55737305 630.22631836 C-1867.69997215 627.73881108 -1866.49872542 625.66155964 -1864.87109375 622.2578125 C-1864.31752197 621.12077881 -1863.7639502 619.98374512 -1863.19360352 618.81225586 C-1862.90768341 618.21154266 -1862.62176331 617.61082947 -1862.32717896 616.99191284 C-1860.80503421 613.79782631 -1859.23991709 610.62482755 -1857.6796875 607.44921875 C-1857.36683304 606.81007034 -1857.05397858 606.17092194 -1856.73164368 605.5124054 C-1852.62841645 597.1569434 -1848.13055743 589.02279128 -1843.60546875 580.89013672 C-1841.85285541 577.73511289 -1840.11355218 574.57294868 -1838.375 571.41015625 C-1822.34128876 542.30458548 -1805.31642432 513.73240563 -1787 486 C-1786.41814941 485.11699219 -1785.83629883 484.23398437 -1785.23681641 483.32421875 C-1766.43941829 454.83659567 -1746.78997662 427.06448023 -1726 400 C-1725.04922466 398.75800729 -1724.09867404 397.51584249 -1723.1484375 396.2734375 C-1720.77567518 393.17447863 -1718.39069581 390.08515503 -1716 387 C-1715.58508301 386.4642334 -1715.17016602 385.9284668 -1714.74267578 385.37646484 C-1703.97723633 371.50056071 -1692.77446355 357.97801098 -1681.37841797 344.61669922 C-1679.91804713 342.90388028 -1678.46106922 341.18820469 -1677.00390625 339.47265625 C-1671.51658011 333.02690629 -1665.94829331 326.68081747 -1660.2265625 320.44140625 C-1658.30866793 318.33845167 -1656.42623955 316.21330844 -1654.5625 314.0625 C-1650.31683237 309.18491904 -1645.93869164 304.42949352 -1641.55078125 299.68017578 C-1640.50749153 298.54983575 -1639.46585187 297.41797073 -1638.42578125 296.28466797 C-1630.56584961 287.72295672 -1622.50210837 279.40520702 -1614.21655273 271.25341797 C-1610.99385559 268.06852478 -1607.85606303 264.90059919 -1604.96875 261.40625 C-1602.31733491 258.23748563 -1599.3667814 255.64330906 -1596.2265625 252.96875 C-1591.77496878 249.03260397 -1587.6699925 244.72982022 -1583.5 240.5 C-1578.11369879 235.03642044 -1572.74126605 229.65041314 -1566.91210938 224.65820312 C-1563.51197095 221.70956418 -1560.26685812 218.5945824 -1557 215.5 C-1549.67274148 208.55913988 -1542.11199668 201.92726105 -1534.4375 195.375 C-1530.69291792 192.17633321 -1526.95679789 188.96956958 -1523.25390625 185.72265625 C-1516.67999767 179.96438819 -1510.03776788 174.36840455 -1503.12451172 169.02099609 C-1499.19499188 165.9723261 -1495.39184948 162.80918481 -1491.625 159.5625 C-1486.3475185 155.03331211 -1480.87738904 150.82675665 -1475.2890625 146.68945312 C-1470.16829824 142.89503483 -1465.13746395 138.99853813 -1460.125 135.0625 C-1451.25845033 128.1250781 -1442.17845393 121.51699002 -1433 115 C-1432.31647461 114.51354004 -1431.63294922 114.02708008 -1430.92871094 113.52587891 C-1426.74927314 110.55363322 -1422.55742077 107.59956795 -1418.35791016 104.65576172 C-1416.70992824 103.49852281 -1415.06392665 102.33846094 -1413.41943359 101.17626953 C-1399.49345613 91.3348455 -1385.33886015 81.9399943 -1370.91699219 72.84130859 C-1368.18276949 71.11537056 -1365.45374427 69.38156657 -1362.7265625 67.64453125 C-1353.23943803 61.61025808 -1343.68812186 55.70587448 -1334 50 C-1333.14873535 49.49774902 -1332.2974707 48.99549805 -1331.42041016 48.47802734 C-1285.49888985 21.42355017 -1238.54102359 -3.50031458 -1189.84387207 -25.17767334 C-1187.05705303 -26.42053375 -1184.27510055 -27.67420431 -1181.4921875 -28.92578125 C-1096.20295149 -67.07952092 -1006.38026461 -95.4766402 0 0 Z M-636.83203125 589.05419922 C-730.13782731 590.48871068 -823.11149293 602.98819612 -1092 689 C-1093.07604492 689.48355957 -1094.15208984 689.96711914 -1095.26074219 690.46533203 C-1102.8755199 693.90325197 -1110.44804656 697.42635467 -1118 701 C-1118.94422821 701.44666016 -1118.94422821 701.44666016 -1119.90753174 701.90234375 C-1139.92156391 711.38023905 -1159.5943674 721.3257456 -1179 732 C-1180.05058594 732.57427734 -1181.10117188 733.14855469 -1182.18359375 733.74023438 C-1230.39048286 758.14820103 -1230.39048286 758.14820103 -1273 790 C-1274.9702252 790.10280697 -1276.94419218 790.13401056 -1278.91709232 790.1386652 C-1280.21142313 790.14413964 -1281.50575394 790.14961409 -1282.83930689 790.15525442 C-1284.29448761 790.15633084 -1285.7496684 790.15731549 -1287.20484924 790.15821838 C-1288.73601456 790.16277991 -1290.26717863 790.16777932 -1291.79834121 790.17318195 C-1296.02606301 790.18681917 -1300.25377672 790.19419748 -1304.48151481 790.20060861 C-1309.03301502 790.20858815 -1313.58449827 790.22229428 -1318.13598633 790.23532104 C-1326.02845799 790.25711864 -1333.92093133 790.27525107 -1341.81341743 790.29092598 C-1353.22476531 790.31359479 -1364.63609444 790.3417417 -1376.04742645 790.37124526 C-1394.55952279 790.41895791 -1413.07162676 790.4622121 -1431.58374023 790.50268555 C-1449.5713765 790.54202181 -1467.55900596 790.58344353 -1485.54663086 790.62768555 C-1486.6545435 790.63040982 -1487.76245613 790.63313409 -1488.90394188 790.63594092 C-1494.46176176 790.64962009 -1500.01958155 790.66334042 -1505.57740128 790.67708123 C-1551.71825334 790.79110368 -1597.85912012 790.89790024 -1644 791 C-1642.0114295 794.40722873 -1640.11368357 797.09200061 -1637.25 799.8125 C-1633.90668783 802.99951913 -1630.89251942 806.38938215 -1627.86914062 809.87475586 C-1624.86957248 813.28531499 -1621.74610279 816.57598748 -1618.625 819.875 C-1613.80860094 824.98775667 -1609.04718972 830.13708222 -1604.37109375 835.37890625 C-1601.2860955 838.78917614 -1598.14368706 842.14388483 -1595 845.5 C-1590.4114164 850.3989753 -1585.87824605 855.33778428 -1581.40625 860.34375 C-1578.30779824 863.76411883 -1575.1548558 867.13170786 -1572 870.5 C-1567.41143663 875.39899472 -1562.87824656 880.3377837 -1558.40625 885.34375 C-1555.30779824 888.76411883 -1552.1548558 892.13170786 -1549 895.5 C-1544.41143663 900.39899472 -1539.87824656 905.3377837 -1535.40625 910.34375 C-1532.30779824 913.76411883 -1529.1548558 917.13170786 -1526 920.5 C-1521.41143663 925.39899472 -1516.87824656 930.3377837 -1512.40625 935.34375 C-1509.30779653 938.76412071 -1506.15477248 942.13162748 -1503 945.5 C-1497.59627934 951.27192734 -1492.25502296 957.09186711 -1487 963 C-1485.84951172 964.29164063 -1485.84951172 964.29164063 -1484.67578125 965.609375 C-1482.78193247 967.73788916 -1480.88994429 969.86801925 -1479 972 C-1484.3817597 978.48394409 -1490.275341 984.33642789 -1496.27929688 990.24023438 C-1501.07748905 994.98975511 -1505.61697265 999.86659729 -1510 1005 C-1510.94926879 1006.08312984 -1511.89972999 1007.16521616 -1512.8515625 1008.24609375 C-1520.65208425 1017.18978343 -1527.89857479 1026.49511811 -1535 1036 C-1535.48887695 1036.65145996 -1535.97775391 1037.30291992 -1536.48144531 1037.97412109 C-1551.68439035 1058.2706227 -1564.94229248 1079.7013103 -1577 1102 C-1577.43812012 1102.80244141 -1577.87624023 1103.60488281 -1578.32763672 1104.43164062 C-1609.89514504 1162.40581867 -1627.67760862 1226.63469109 -1635 1292 C-1635.12004395 1293.01771484 -1635.24008789 1294.03542969 -1635.36376953 1295.08398438 C-1639.45101735 1330.87633637 -1638.4369855 1368.27771706 -1634 1404 C-1633.87625 1405.00984955 -1633.87625 1405.00984955 -1633.75 1406.0401001 C-1622.63272172 1495.89496728 -1587.45825642 1580.80239649 -1521 1668 C-1520.13096145 1669.04251137 -1519.26250152 1670.08550528 -1518.39453125 1671.12890625 C-1512.61194411 1678.05401238 -1506.64605046 1684.78615441 -1500.49511719 1691.38720703 C-1498.90566897 1693.10175551 -1497.33131889 1694.82940967 -1495.7578125 1696.55859375 C-1487.25884535 1705.84836085 -1478.29295553 1714.50944311 -1469 1723 C-1467.59041016 1724.299375 -1467.59041016 1724.299375 -1466.15234375 1725.625 C-1460.28408254 1730.98176459 -1454.18586042 1736.01605546 -1448 1741 C-1446.89007259 1741.91339164 -1445.78072183 1742.82748435 -1444.671875 1743.7421875 C-1434.50964273 1752.06972789 -1423.87402075 1759.63285614 -1413 1767 C-1412.19965332 1767.54269531 -1411.39930664 1768.08539062 -1410.57470703 1768.64453125 C-1367.57850566 1797.60816782 -1321.33132169 1818.63383235 -1272 1834 C-1270.85337891 1834.35819824 -1269.70675781 1834.71639648 -1268.52539062 1835.08544922 C-1241.75883179 1843.31273974 -1213.78295563 1848.68079734 -1186 1852 C-1184.77023437 1852.14953125 -1183.54046875 1852.2990625 -1182.2734375 1852.453125 C-1143.21828712 1856.9926014 -1103.01700192 1856.88698992 -1064 1852 C-1063.31605164 1851.91514343 -1062.63210327 1851.83028687 -1061.9274292 1851.74285889 C-990.96449949 1842.84226952 -922.06529694 1819.25671658 -861 1782 C-859.16177327 1780.89661056 -857.3232347 1779.79374047 -855.484375 1778.69140625 C-843.89306188 1771.68740504 -832.82290287 1764.13770015 -822 1756 C-821.38656738 1755.53964355 -820.77313477 1755.07928711 -820.14111328 1754.60498047 C-808.44500237 1745.79319727 -797.23196745 1736.38937593 -786 1727 C-783.07087599 1729.26723089 -780.42803815 1731.46205929 -778.0625 1734.3125 C-774.531923 1738.44567002 -770.8441721 1742.41251297 -767.125 1746.375 C-763.21099288 1750.5497705 -759.31188459 1754.73126033 -755.5 1759 C-751.72655988 1763.22400014 -747.87169615 1767.36637092 -744 1771.5 C-739.41143663 1776.39899472 -734.87824656 1781.3377837 -730.40625 1786.34375 C-727.30779767 1789.76411946 -724.15482804 1793.13168108 -721 1796.5 C-716.36553314 1801.44875123 -711.78131581 1806.43401836 -707.26171875 1811.48828125 C-703.07140728 1816.1417705 -698.80653832 1820.72687642 -694.55273438 1825.32226562 C-685.88951386 1834.68290264 -677.25800081 1844.07219089 -668.64550781 1853.47949219 C-662.93739245 1859.71362539 -657.2169916 1865.9360536 -651.48071289 1872.14428711 C-648.59878965 1875.26447043 -645.72216302 1878.38935412 -642.85375977 1881.52197266 C-641.50682728 1882.99254602 -640.15771556 1884.46112239 -638.80859375 1885.9296875 C-636.78818217 1888.13207279 -634.78411736 1890.34844781 -632.78515625 1892.5703125 C-631.71098411 1893.75525059 -630.63676639 1894.94014736 -629.5625 1896.125 C-629.06621094 1896.681875 -628.56992188 1897.23875 -628.05859375 1897.8125 C-625.58719353 1900.52698876 -623.46412458 1902.67331399 -620 1904 C-619.51273438 1903.45214844 -619.02546875 1902.90429688 -618.5234375 1902.33984375 C-613.7461169 1896.99793071 -608.89905829 1891.73018249 -604 1886.5 C-600.12829016 1882.36638339 -596.27343988 1878.22399986 -592.5 1874 C-588.7265588 1869.77599866 -584.87166228 1865.63366216 -581 1861.5 C-576.36553314 1856.55124877 -571.78131581 1851.56598164 -567.26171875 1846.51171875 C-563.07140728 1841.8582295 -558.80653832 1837.27312358 -554.55273438 1832.67773438 C-552.01233522 1829.9328251 -549.47465958 1827.18540353 -546.9375 1824.4375 C-546.19258301 1823.63070801 -546.19258301 1823.63070801 -545.43261719 1822.80761719 C-540.27428202 1817.2180169 -535.13606885 1811.61005357 -530 1806 C-523.84075995 1799.27235135 -517.67075416 1792.55504247 -511.48071289 1785.85571289 C-508.14547198 1782.24473431 -504.81941515 1778.62552836 -501.5 1775 C-497.67664732 1770.82406148 -493.84234195 1766.65847228 -490 1762.5 C-483.30164493 1755.2498255 -476.63142063 1747.97404817 -469.97265625 1740.6875 C-469.47515869 1740.14359619 -468.97766113 1739.59969238 -468.46508789 1739.03930664 C-467.08037479 1737.52537518 -465.69641414 1736.01075559 -464.3125 1734.49609375 C-462.97712386 1733.05469957 -461.61481597 1731.63556942 -460.1875 1730.28515625 C-458.77378304 1729.04681218 -458.77378304 1729.04681218 -459 1727 C-454.13705842 1729.48109264 -450.74392477 1732.10534847 -446.984375 1736.03125 C-443.43639708 1739.55129108 -439.50028742 1742.60277092 -435.59814453 1745.71826172 C-433.92035305 1747.06387817 -432.25462665 1748.4234864 -430.58984375 1749.78515625 C-421.00721979 1757.58729538 -411.1171323 1764.90661894 -401 1772 C-400.38753418 1772.42990234 -399.77506836 1772.85980469 -399.14404297 1773.30273438 C-330.01068236 1821.44606708 -248.62044543 1851.00481292 -165.0625 1860.3125 C-164.33389771 1860.39399292 -163.60529541 1860.47548584 -162.85461426 1860.55944824 C-145.31571583 1862.48786093 -127.82719163 1863.20993443 -110.1875 1863.1875 C-109.29814758 1863.18689575 -108.40879517 1863.1862915 -107.49249268 1863.18566895 C-15.85080535 1863.01804044 76.85998631 1837.90991769 169 1781 C169.57927246 1780.62391602 170.15854492 1780.24783203 170.75537109 1779.86035156 C187.57872703 1768.92542689 203.61035706 1756.86675066 219 1744 C219.52142578 1743.56494141 220.04285156 1743.12988281 220.58007812 1742.68164062 C233.64566658 1731.74480212 245.98917781 1720.08030051 258.0625 1708.0625 C258.75255127 1707.37712158 259.44260254 1706.69174316 260.15356445 1705.9855957 C264.08120448 1702.04553098 267.82300802 1697.99636479 271.45678711 1693.78393555 C273.34211564 1691.60451843 275.29485217 1689.49179391 277.25 1687.375 C282.28449066 1681.78866803 286.87965472 1675.90832432 291.47265625 1669.95996094 C293.04684179 1667.93989036 294.64554157 1665.94140292 296.25 1663.9453125 C318.35532582 1636.28187644 336.20925572 1605.61722577 352 1574 C352.43006348 1573.14776855 352.86012695 1572.29553711 353.30322266 1571.41748047 C388.73379086 1500.89210964 404.53385255 1419.59250072 376.6875 1188.3125 C368.31639763 1163.34040705 357.78806299 1139.51888501 346 1116 C345.5477002 1115.09282227 345.09540039 1114.18564453 344.62939453 1113.25097656 C334.95505881 1093.9627461 323.59905786 1075.51226905 311 1058 C310.46407227 1057.25298828 309.92814453 1056.50597656 309.37597656 1055.73632812 C301.29086181 1044.51033308 292.87648844 1033.61059076 284 1023 C283.50290527 1022.40380859 283.00581055 1021.80761719 282.49365234 1021.19335938 C271.52455294 1008.0810389 259.81152532 995.73420382 247.75 983.625 C246.4978772 982.36586792 246.4978772 982.36586792 245.22045898 981.08129883 C244.44130127 980.30423584 243.66214355 979.52717285 242.859375 978.7265625 C242.16295898 978.03127441 241.46654297 977.33598633 240.74902344 976.61962891 C239.08190522 974.92446037 239.08190522 974.92446037 237 974 C237.58782891 970.61161277 238.68770997 968.91889928 241.0625 966.4609375 C241.68987061 965.80327393 242.31724121 965.14561035 242.96362305 964.46801758 C243.63562744 963.77732178 244.30763184 963.08662598 245 962.375 C246.38223963 960.92908216 247.76375324 959.48246992 249.14453125 958.03515625 C249.81307129 957.33793457 250.48161133 956.64071289 251.17041016 955.92236328 C253.3883103 953.59199955 255.54705203 951.21407471 257.6875 948.8125 C262.54336222 943.37466178 267.49503692 938.02763263 272.44726562 932.67773438 C274.9876648 929.93282508 277.52532337 927.18538781 280.0625 924.4375 C280.55983643 923.89891357 281.05717285 923.36032715 281.56958008 922.80541992 C285.34122461 918.71880524 289.10037135 914.6208802 292.85571289 910.51928711 C296.2280119 906.83772478 299.61181813 903.16694599 303 899.5 C308.68329269 893.34851007 314.34469121 887.17721184 320 881 C326.15854189 874.27311394 332.32811854 867.55681923 338.51708984 860.85791016 C343.69366324 855.25288452 348.84792498 849.62753688 354 844 C360.15924005 837.27235135 366.32924584 830.55504247 372.51928711 823.85571289 C376.75376166 819.27115745 380.97118509 814.67123726 385.18359375 810.06640625 C387.20818333 807.85717294 389.24393833 805.65872068 391.28515625 803.46484375 C391.83171875 802.87638672 392.37828125 802.28792969 392.94140625 801.68164062 C393.99824189 800.54458734 395.05675702 799.40909205 396.1171875 798.27539062 C398.29669639 795.92845315 400.21849516 793.67225725 402 791 C401.22582479 791.00357984 400.45164959 791.00715967 399.65401453 791.01084799 C353.69174509 791.2214642 307.72982221 791.35326525 261.76706257 791.38379767 C256.23883222 791.38753764 250.71060257 791.39193103 245.18237305 791.39672852 C243.53163156 791.39814458 243.53163156 791.39814458 241.84754176 791.39958925 C224.06692622 791.41639749 206.28689496 791.48604525 188.50651335 791.57548653 C170.23964657 791.6661888 151.97331369 791.69949098 133.70622879 791.68036038 C122.44897566 791.67035455 111.19365949 791.70423608 99.93676562 791.79565156 C92.2000495 791.85417546 84.46453564 791.85655684 76.72770893 791.81635087 C72.27404499 791.79481622 67.82388872 791.79652949 63.37062836 791.86545753 C42.649593 792.16759502 27.97158545 790.6946626 11.32244599 776.8610965 C7.63461443 773.90584568 3.64815515 771.467315 -0.375 769 C-1.91718152 768.03206981 -3.45890558 767.06341007 -5 766.09375 C-29.50954256 750.86451967 -54.52289479 736.54289022 -80 723 C-81.6387207 722.12819092 -81.6387207 722.12819092 -83.31054688 721.23876953 C-136.83871675 692.87993342 -192.6586348 669.46364091 -250 650 C-250.72171387 649.75463501 -251.44342773 649.50927002 -252.18701172 649.25646973 C-337.35271636 620.35995184 -426.22849819 601.66458517 -528.875 592.75 C-529.89113373 592.66682526 -530.90726746 592.58365051 -531.95419312 592.49795532 C-551.36992494 590.92723867 -570.77850746 589.93831636 -590.25 589.4375 C-591.04970215 589.41665344 -591.8494043 589.39580688 -592.67333984 589.37432861 C-607.40106841 588.99591795 -622.10002999 588.84583376 -636.83203125 589.05419922 Z " fill="#096D11" transform="translate(2288,423)"/>
<path d="M0 0 C0.81855469 0.74636719 1.63710937 1.49273438 2.48046875 2.26171875 C4.09728342 3.73458807 5.724693 5.19592425 7.36328125 6.64453125 C16.79597778 14.99404732 25.89114669 23.79277616 33.9375 33.5 C34.3814209 34.03012695 34.8253418 34.56025391 35.28271484 35.10644531 C64.94395932 70.60787663 87.6278142 110.45401012 101.9375 154.5 C102.23011719 155.39750977 102.52273438 156.29501953 102.82421875 157.21972656 C108.32226661 174.35610936 111.98745537 191.77176971 114.9375 209.5 C115.11829102 210.55832031 115.29908203 211.61664062 115.48535156 212.70703125 C120.76077468 245.05177259 120.43834636 281.21650638 114.9375 313.5 C114.73882324 314.70462891 114.54014648 315.90925781 114.33544922 317.15039062 C103.29524657 382.61424392 75.03730287 443.83538059 30.1796875 493.0390625 C28.69430939 494.66935555 27.22013272 496.3099308 25.7578125 497.9609375 C17.69553471 507.05610497 9.21757921 515.64507581 -0.0625 523.5 C-1.42375 524.69496094 -1.42375 524.69496094 -2.8125 525.9140625 C-11.7843001 533.73706961 -21.31324054 540.68189044 -31.0625 547.5 C-32.00150146 548.16298096 -32.00150146 548.16298096 -32.95947266 548.83935547 C-80.57628569 582.31359598 -137.38281857 601.59552472 -195.0625 607.5 C-196.34930664 607.64139404 -196.34930664 607.64139404 -197.66210938 607.78564453 C-286.13920526 616.47480416 -378.01635992 588.70015405 -446.79296875 532.484375 C-452.54239709 527.6990803 -458.12620365 522.71988596 -463.65625 517.68359375 C-465.31030206 516.18259521 -466.9778167 514.69634091 -468.65625 513.22265625 C-473.25258282 509.17317628 -477.47803892 505.0706368 -481.42578125 500.38671875 C-483.01865725 498.5505395 -484.68762156 496.87330967 -486.4375 495.1875 C-491.05000448 490.6260188 -495.0561382 485.59211645 -499.0625 480.5 C-499.56088379 479.86739258 -500.05926758 479.23478516 -500.57275391 478.58300781 C-508.20573079 468.85055541 -515.4408263 458.94903497 -522.0625 448.5 C-522.42762695 447.92668945 -522.79275391 447.35337891 -523.16894531 446.76269531 C-530.54404861 435.08820445 -536.8772622 422.83611316 -543.0625 410.5 C-543.4646875 409.7059375 -543.866875 408.911875 -544.28125 408.09375 C-584.07257537 328.51109927 -585.02537974 232.13536524 -557.88671875 148.74609375 C-542.62947669 103.32170244 -517.36752181 61.49054191 -484.76171875 26.421875 C-482.25762409 23.71121971 -479.81323155 20.9572639 -477.375 18.1875 C-474.21008435 14.66534519 -470.94544054 11.49808163 -467.32421875 8.453125 C-465.06166103 6.4992755 -462.89861485 4.45815939 -460.73364258 2.39746094 C-453.27691352 -4.65978028 -445.32590907 -10.9099909 -437.07470703 -17.00976562 C-435.28857189 -18.33257185 -433.51614478 -19.67144684 -431.74609375 -21.015625 C-420.42966259 -29.40228073 -408.23397323 -36.4392469 -396.0625 -43.5 C-395.32854004 -43.92587402 -394.59458008 -44.35174805 -393.83837891 -44.79052734 C-302.82459493 -96.95441426 -184.54048972 -98.64806377 0 0 Z M-345.0625 122.5 C-345.89007812 123.21800781 -346.71765625 123.93601562 -347.5703125 124.67578125 C-350.10535576 126.91281786 -352.5908734 129.19314851 -355.0625 131.5 C-355.92488281 132.29664063 -356.78726562 133.09328125 -357.67578125 133.9140625 C-369.97740025 145.69940516 -379.91727446 159.57551842 -388.0625 174.5 C-388.40619629 175.12696777 -388.74989258 175.75393555 -389.10400391 176.39990234 C-398.54363517 193.85724012 -404.36445323 212.0355906 -408.0625 231.5 C-408.19527344 232.18562012 -408.32804688 232.87124023 -408.46484375 233.57763672 C-415.7066734 272.88897326 -406.61846578 313.7164172 -388.0625 348.5 C-387.74023438 349.11117676 -387.41796875 349.72235352 -387.0859375 350.35205078 C-380.55018977 362.6497509 -372.44403544 373.13976928 -363.015625 383.359375 C-361.43347392 385.09341258 -359.95303119 386.84699382 -358.5 388.6875 C-355.31083579 392.36730485 -351.80446163 395.3932479 -348.0625 398.5 C-347.55460937 398.93086914 -347.04671875 399.36173828 -346.5234375 399.80566406 C-307.16989538 433.0960151 -258.35963959 446.33540887 -207.359375 442.19970703 C-160.83007634 436.79012477 -116.69395685 412.21909585 -87.4453125 375.6328125 C-69.81237049 352.44982972 -57.95651331 327.85323724 -51.0625 299.5 C-50.88315918 298.78215332 -50.70381836 298.06430664 -50.51904297 297.32470703 C-41.44586592 259.1128462 -49.11108873 216.25120885 -66.0625 181.5 C-66.52994629 180.52836914 -66.52994629 180.52836914 -67.00683594 179.53710938 C-74.21901524 164.71589011 -83.75630254 151.4673786 -95.0625 139.5 C-96.19212233 138.17058052 -97.31729312 136.83736282 -98.4375 135.5 C-125.01565429 105.3057703 -165.73411703 86.98309452 -205.0625 81.5 C-206.04549072 81.35860596 -206.04549072 81.35860596 -207.04833984 81.21435547 C-255.68024704 74.92875174 -308.14796433 90.01290864 -345.0625 122.5 Z " fill="#096D11" transform="translate(1383.0625,1512.5)"/>
<path d="M0 0 C1.56346955 1.27086879 3.13907904 2.52675979 4.71533203 3.78173828 C13.30688776 10.77825417 21.11613009 18.59530958 28.96142578 26.40283203 C29.80127014 27.23477585 29.80127014 27.23477585 30.65808105 28.08352661 C37.79495226 35.16848617 44.41038322 42.43563922 50.64892578 50.34033203 C51.67288694 51.58401018 52.69982461 52.82524933 53.73095703 54.06298828 C61.39299504 63.3861616 68.17333943 73.16241475 74.64892578 83.34033203 C75.0467627 83.96343262 75.44459961 84.5865332 75.85449219 85.22851562 C123.49373682 160.49728315 139.62405185 253.04769317 120.47705078 347.75244141 C106.86238994 406.7386017 78.52791762 461.11441271 37.28173828 505.48486328 C34.95961213 508.00337102 32.70354042 510.56340944 30.46142578 513.15283203 C27.38737437 516.63466577 24.11534798 519.67345203 20.57080078 522.66845703 C18.72431635 524.27474837 17.03359556 525.95350817 15.33642578 527.71533203 C11.29428234 531.80258868 6.89382105 535.38504215 2.39355469 538.95507812 C1.14814145 539.94394948 -0.09402065 540.93692112 -1.33398438 541.93261719 C-22.3113545 558.75586222 -45.03906677 572.83392888 -69.35107422 584.34033203 C-70.08841797 584.69305176 -70.82576172 585.04577148 -71.58544922 585.40917969 C-154.6968746 624.92545514 -251.58387672 627.54742788 -337.91357422 597.09033203 C-379.67358103 581.92182572 -418.12491134 558.76294248 -450.80419922 528.66845703 C-452.93318808 526.72232611 -455.09264075 524.83459772 -457.28857422 522.96533203 C-465.59009204 515.73993689 -473.25956627 507.7462143 -480.35107422 499.34033203 C-481.13482422 498.44572266 -481.91857422 497.55111328 -482.72607422 496.62939453 C-525.62863519 447.37355577 -551.77705185 386.45338248 -562.35107422 322.34033203 C-562.53041504 321.2878125 -562.70975586 320.23529297 -562.89453125 319.15087891 C-568.17281409 286.79977494 -567.85310755 250.63079179 -562.35107422 218.34033203 C-562.15239746 217.13570312 -561.9537207 215.93107422 -561.74902344 214.68994141 C-551.25157302 152.44438522 -525.21969063 92.94900069 -483.35107422 45.34033203 C-482.39974609 44.24011719 -482.39974609 44.24011719 -481.42919922 43.11767578 C-479.74956386 41.17993132 -478.052823 39.25866702 -476.35107422 37.34033203 C-475.70138672 36.59783203 -475.05169922 35.85533203 -474.38232422 35.09033203 C-465.68496484 25.25853448 -456.48006797 15.7099896 -446.35107422 7.34033203 C-445.82239746 6.89786133 -445.2937207 6.45539063 -444.74902344 5.99951172 C-428.84225847 -7.29120684 -412.27909095 -19.24177219 -394.35107422 -29.65966797 C-393.62452637 -30.08344727 -392.89797852 -30.50722656 -392.14941406 -30.94384766 C-306.91867555 -80.32491682 -202.60517327 -90.14674115 0 0 Z M-352.35107422 147.34033203 C-355.49439533 150.8955366 -358.42630322 154.60390209 -361.35107422 158.34033203 C-361.78468262 158.89221191 -362.21829102 159.4440918 -362.66503906 160.01269531 C-385.8674037 189.79171289 -398.87804061 226.63987822 -400.35107422 264.34033203 C-400.39232422 265.26201172 -400.43357422 266.18369141 -400.47607422 267.13330078 C-401.61638203 317.66319067 -380.73258118 363.3356638 -346.35107422 399.34033203 C-345.74908203 399.99517578 -345.14708984 400.65001953 -344.52685547 401.32470703 C-321.59386685 425.58630708 -288.44777655 441.04594824 -256.35107422 448.34033203 C-255.29025635 448.58589844 -255.29025635 448.58589844 -254.20800781 448.83642578 C-231.45617919 453.82030677 -204.00032628 453.80466207 -181.35107422 448.34033203 C-180.50544922 448.14697266 -179.65982422 447.95361328 -178.78857422 447.75439453 C-145.68261505 440.04869714 -116.71221939 423.90492749 -92.35107422 400.34033203 C-91.85124023 399.8662793 -91.35140625 399.39222656 -90.83642578 398.90380859 C-59.10552251 368.7825897 -38.78314684 324.2725825 -37.25048828 280.46533203 C-36.91742197 267.30715658 -37.14492607 254.33141054 -39.35107422 241.34033203 C-39.52848145 240.25655273 -39.52848145 240.25655273 -39.70947266 239.15087891 C-45.89121309 202.6896211 -63.30402897 171.15009895 -88.35107422 144.34033203 C-89.14900391 143.47666016 -89.94693359 142.61298828 -90.76904297 141.72314453 C-102.55248788 129.42272549 -116.42860039 119.48446182 -131.35107422 111.34033203 C-131.97804199 110.99663574 -132.60500977 110.65293945 -133.25097656 110.29882812 C-150.73534875 100.84457866 -168.88144777 95.12478954 -188.35107422 91.34033203 C-189.56279297 91.09283203 -190.77451172 90.84533203 -192.02294922 90.59033203 C-251.1392671 80.59884169 -311.62072508 104.82952432 -352.35107422 147.34033203 Z " fill="#0A6E12" transform="translate(2397.35107421875,1503.65966796875)"/>
<path d="M0 0 C1.92779297 0.00090637 1.92779297 0.00090637 3.89453125 0.00183105 C92.34003548 0.11391889 180.47899583 11.91993663 385.5625 76.1875 C385.5625 77.1775 385.5625 78.1675 385.5625 79.1875 C384.94133301 79.42758789 384.32016602 79.66767578 383.68017578 79.91503906 C317.44156942 105.64558485 254.71932819 141.30527033 200.62890625 187.58984375 C197.90479014 189.91402742 195.11580007 192.14673584 192.3125 194.375 C178.86872566 205.38663853 166.72696224 217.9275696 154.4375 230.1875 C153.80289856 230.81942261 153.16829712 231.45134521 152.51446533 232.10241699 C145.97779899 238.61815214 139.50343383 245.11524988 133.5625 252.1875 C132.5901271 253.3060677 131.61619446 254.42328162 130.640625 255.5390625 C123.68987713 263.5626063 116.99593259 271.74348619 110.5625 280.1875 C110.05025879 280.8578125 109.53801758 281.528125 109.01025391 282.21875 C87.29557144 310.77792138 68.6630126 341.13486663 52.5625 373.1875 C52.1298584 374.0434375 51.6972168 374.899375 51.25146484 375.78125 C21.35598061 435.31954823 6.31458381 500.92794918 2.5625 567.1875 C2.50465332 568.19699707 2.44680664 569.20649414 2.38720703 570.24658203 C2.08716787 575.55914486 1.81124109 580.87229558 1.5625 586.1875 C1.2325 586.1875 0.9025 586.1875 0.5625 586.1875 C0.52286133 585.14859619 0.48322266 584.10969238 0.44238281 583.03930664 C-2.98363332 495.79620054 -24.49325427 412.72830011 -69.4375 337.1875 C-69.96698242 336.29627441 -70.49646484 335.40504883 -71.04199219 334.48681641 C-89.27710076 303.99704976 -110.85996181 275.72568797 -134.4375 249.1875 C-135.06398438 248.47980469 -135.69046875 247.77210938 -136.3359375 247.04296875 C-138.68624902 244.40869766 -141.05790651 241.79536845 -143.4375 239.1875 C-144.22640625 238.3207666 -144.22640625 238.3207666 -145.03125 237.43652344 C-154.11199059 227.49414439 -163.58604796 218.10152175 -173.49072266 208.98144531 C-175.26504944 207.3464123 -177.0305809 205.70256541 -178.79296875 204.0546875 C-184.26179794 198.96119561 -189.86735797 194.09417806 -195.69140625 189.41015625 C-198.45830568 187.17066013 -201.16462672 184.86992858 -203.875 182.5625 C-254.55434254 140.28595001 -313.24593545 107.49022942 -374.15307617 82.54345703 C-377.59535754 81.12232935 -381.01750101 79.66130573 -384.4375 78.1875 C-381.42439485 75.72267683 -378.52444644 74.25713033 -374.90625 72.83984375 C-373.80039551 72.40470459 -372.69454102 71.96956543 -371.55517578 71.52124023 C-370.36134277 71.06048096 -369.16750977 70.59972168 -367.9375 70.125 C-367.31969666 69.88484161 -366.70189331 69.64468323 -366.06536865 69.39724731 C-352.2908531 64.04304022 -338.40262377 59.02239077 -324.4375 54.1875 C-323.25494629 53.7764502 -322.07239258 53.36540039 -320.85400391 52.94189453 C-240.56744038 25.17499525 -156.42874048 8.63068061 -71.75 2.4375 C-70.94460785 2.37833405 -70.1392157 2.31916809 -69.30941772 2.25820923 C-46.21676713 0.5923666 -23.15009264 -0.0203071 0 0 Z " fill="#0A6E12" transform="translate(1665.4375,1178.8125)"/>
<path d="M0 0 C0.33 0 0.66 0 1 0 C1.08188486 1.87425348 1.13958757 3.74957054 1.1875 5.625 C1.23970703 7.19121094 1.23970703 7.19121094 1.29296875 8.7890625 C0.60930819 16.28198229 -5.00987364 22.95816994 -8.97265625 29.19140625 C-13.32309721 36.17344909 -15.87342286 42.5718881 -17.3125 50.6875 C-18.21247165 54.85833634 -18.83898558 57.56137313 -22.1875 60.3125 C-23.115625 60.869375 -24.04375 61.42625 -25 62 C-24.35471998 58.25226476 -23.30337105 54.90980032 -21.91796875 51.37109375 C-21.48597168 50.26612549 -21.05397461 49.16115723 -20.60888672 48.02270508 C-20.1398291 46.8395874 -19.67077148 45.65646973 -19.1875 44.4375 C-18.70555176 43.21635498 -18.22360352 41.99520996 -17.72705078 40.73706055 C-14.07855483 31.53792395 -10.27078625 22.40939922 -6.375 13.3125 C-6.11165863 12.69623749 -5.84831726 12.07997498 -5.57699585 11.44503784 C-1.18319016 1.18319016 -1.18319016 1.18319016 0 0 Z " fill="#000701" transform="translate(396,1103)"/>
<path d="M0 0 C0 0.33 0 0.66 0 1 C-10.05142877 1.22336508 -19.97928354 0.99514625 -30 0.125 C-30.96115723 0.04652832 -31.92231445 -0.03194336 -32.91259766 -0.11279297 C-33.80769043 -0.19674316 -34.7027832 -0.28069336 -35.625 -0.3671875 C-36.81996094 -0.47716064 -36.81996094 -0.47716064 -38.0390625 -0.58935547 C-40 -1 -40 -1 -42 -3 C-41.24074219 -3.06058594 -40.48148438 -3.12117188 -39.69921875 -3.18359375 C-38.70535156 -3.26738281 -37.71148438 -3.35117188 -36.6875 -3.4375 C-35.70136719 -3.51871094 -34.71523437 -3.59992187 -33.69921875 -3.68359375 C-20.9654169 -5.17626806 -12.32765038 -4.04659098 0 0 Z " fill="#010D02" transform="translate(1151,2120)"/>
<path d="M0 0 C5.76333652 1.32283896 11.38574353 3.15710221 17 5 C13.54642792 6.15119069 10.98871081 5.85908953 7.4375 5.1875 C6.48746094 5.01605469 5.53742188 4.84460937 4.55859375 4.66796875 C2 4 2 4 -1 2 C-4.20379124 1.75753217 -4.20379124 1.75753217 -7.6875 1.875 C-8.86699219 1.89304687 -10.04648438 1.91109375 -11.26171875 1.9296875 C-12.61716797 1.96449219 -12.61716797 1.96449219 -14 2 C-9.41776092 -1.05482606 -5.37950488 -0.62327222 0 0 Z " fill="#043508" transform="translate(1134,2115)"/>
<path d="M0 0 C0.33 0 0.66 0 1 0 C1.55353075 12.66970387 1.55353075 12.66970387 -2 18 C-2.625 16.1875 -2.625 16.1875 -3 14 C-2.34 13.01 -1.68 12.02 -1 11 C-0.79576137 8.51688623 -0.79576137 8.51688623 -0.9375 5.875 C-0.99164105 4.25076856 -1.02038538 2.62500568 -1 1 C-0.67 0.67 -0.34 0.34 0 0 Z " fill="#053809" transform="translate(396,1103)"/>
<path d="M0 0 C0.33 0 0.66 0 1 0 C1.49230769 6.4 1.49230769 6.4 -1 9.4375 C-1.99 10.2109375 -1.99 10.2109375 -3 11 C-2.69078116 9.54096742 -2.37751201 8.08279278 -2.0625 6.625 C-1.88847656 5.81289062 -1.71445312 5.00078125 -1.53515625 4.1640625 C-1 2 -1 2 0 0 Z " fill="#032005" transform="translate(344,1239)"/>
<path d="M0 0 C0.99 0.33 1.98 0.66 3 1 C2.6875 2.9375 2.6875 2.9375 2 5 C1.01 5.33 0.02 5.66 -1 6 C-1.042721 4.33388095 -1.04063832 2.66617115 -1 1 C-0.67 0.67 -0.34 0.34 0 0 Z " fill="#06440B" transform="translate(1198,794)"/>
</svg>
